<?xml version="1.0" encoding="utf-8"?>
<!-- Generator: Adobe Illustrator 27.0.0, SVG Export Plug-In . SVG Version: 6.00 Build 0)  -->
<svg version="1.1" id="katman_1" xmlns="http://www.w3.org/2000/svg" xmlns:xlink="http://www.w3.org/1999/xlink" x="0px" y="0px"
	 viewBox="0 0 841.89 595.28" style="enable-background:new 0 0 841.89 595.28;" xml:space="preserve">
<style type="text/css">
	.st0{fill:#A71F6D;}
</style>
<path id="las-vegas-29" class="st0" d="M400.04,443.5h16.64v6.06h-23.64v-33.48h6.99V443.5L400.04,443.5z M426.31,449.57h-7.37
	l11.94-33.48h8.06l11.8,33.48h-7.6l-2.14-6.9h-12.35L426.31,449.57z M430.51,436.89h8.53l-4.15-13.24h-0.09L430.51,436.89z
	 M460.23,439.26c0.05,1.86,0.98,5.4,7.08,5.4c3.31,0,6.99-0.79,6.99-4.33c0-2.61-2.52-3.31-6.06-4.15l-3.59-0.84
	c-5.41-1.26-10.63-2.47-10.63-9.84c0-3.73,2-10.3,12.87-10.3c10.26,0,13.01,6.71,13.05,10.82h-6.72c-0.18-1.5-0.75-5.04-6.85-5.04
	c-2.66,0-5.83,0.97-5.83,4.01c0,2.61,2.14,3.17,3.54,3.5l8.16,2c4.57,1.12,8.76,2.98,8.76,9c0,10.08-10.26,10.96-13.19,10.96
	c-12.22,0-14.32-7.04-14.32-11.19H460.23z M514.99,416.09h7.27l-11.37,33.48h-6.67l-11.28-33.48h7.51l7.18,25.37h0.09L514.99,416.09
	z M551.33,422.01h-17.77v7.04h16.32v5.92h-16.32v8.67h18.56v5.92h-25.41v-33.48h24.62V422.01z M573.54,431.52h13.99v18.04h-4.66
	l-0.7-4.2c-1.77,2.05-4.33,5.08-10.44,5.08c-8.06,0-15.38-5.79-15.38-17.53c0-9.15,5.08-17.77,16.36-17.72
	c10.26,0,14.32,6.67,14.69,11.28h-6.99c0-1.31-2.38-5.5-7.32-5.5c-4.99,0-9.6,3.45-9.6,12.03c0,9.14,4.99,11.51,9.74,11.51
	c1.54,0,6.67-0.61,8.11-7.37h-7.79v-5.64H573.54z M598.88,449.57h-7.37l11.94-33.48h8.07l11.8,33.48h-7.6l-2.15-6.9h-12.37
	L598.88,449.57z M603.08,436.89h8.53l-4.15-13.24h-0.09L603.08,436.89z M632.79,439.26c0.05,1.86,0.98,5.4,7.08,5.4
	c3.31,0,7-0.79,7-4.33c0-2.61-2.52-3.31-6.06-4.15l-3.59-0.84c-5.4-1.26-10.63-2.47-10.63-9.84c0-3.73,2-10.3,12.87-10.3
	c10.26,0,13.01,6.71,13.05,10.82h-6.72c-0.18-1.5-0.75-5.04-6.85-5.04c-2.66,0-5.83,0.97-5.83,4.01c0,2.61,2.14,3.17,3.54,3.5
	l8.16,2c4.57,1.12,8.76,2.98,8.76,9c0,10.08-10.26,10.96-13.19,10.96c-12.22,0-14.32-7.04-14.32-11.19H632.79z M560.63,150.36
	c0.38,16.57-9.79,32.02-24.49,39.19c-6.42,1.87-13.58,3.77-19.98,1.51c-1.51-9.44-9.81-22.24,0-30.54
	c10.92-12.06,26.01-15.85,40.71-16.58L560.63,150.36z M487.89,194.08c-24.14,24.13-43.74,53.53-67.1,79.92
	c-5.27,12.44,6.4,20.72,12.45,29.76c6.03,1.9,13.19,0.75,18.47-1.88c20.73-22.97,41.1-46.37,56.93-71.61v-27.15
	C507.11,193.32,495.56,190.68,487.89,194.08 M705.77,168.45c10.18,18.09,21.86,38.82,14.32,61.06
	c-27.53,32.04-65.58,47.51-103.29,59.94c-26,5.65-56.91,19.99-83.67,5.27c-9.81-13.93-21.48-28.64-19.99-46.36
	c5.68-16.58,24.13-29.77,38.45-38.82c21.13-15.46,44.49-24.13,65.98-38.07c1.87-2.64,3-6.42,6.39-6.42l10.18,20
	c21.11-8.31,39.97-24.15,64.47-21.87L705.77,168.45z M638.67,198.6c-1.89,5.28,0.38,12.06-6.41,15.46
	c-26.01,11.32-53.91,22.63-73.5,45.24c14.33,3.77,29.41-2.27,43.34-5.27c27.15-11.31,55.04-26.41,74.65-50.14
	C664.29,200.85,649.97,203.12,638.67,198.6 M342.74,230.27c-79.17,8.67-148.9,40.32-219.02,70.86
	c-12.06,3.38-25.25,12.45-38.07,6.42c3.4,14.69,7.17,29.76,17.35,41.46c5.27,2.64,10.17-0.38,15.45-0.75
	c70.88-28.67,138.72-64.08,216-78.05c9.8-1.5,22.62-3.77,31.67,0.77c0,1.88,0.76,3.77-0.75,4.52
	c-29.03,32.78-68.23,49.39-103.67,70.88c-3.4,12.44,2.25,22.99,5.65,33.54c7.18,22.62,33.17,13.95,50.9,14.7
	c112.7-24.51,237.86-41.84,357.35-19.97c23,6.39,49,7.15,66.34,24.49c5.29-17.72,26.88-45.63,6.41-57.29
	c-88.2-29.03-194.88-28.66-290.26-18.1c-44.48,4.51-86.69,13.83-130.05,21.87c24.5-13.94,52.77-27.14,70.87-52.78
	c9.43-12.82,1.51-29.41,0-43.36C389.12,228.75,364.23,229.88,342.74,230.27 M227.4,314.7c-23.37,37.69-53.53,69.75-79.91,106.31
	c-4.16,10.53,3.01,18.84,9.04,26.38c18.02,7.82,26.38,0,36.18-8.3l41.09-59.94c7.91-17.33,21.48-33.54,18.09-54.65
	C248.5,315.08,236.82,303.4,227.4,314.7 M715.9,270.9c0-6.87,5.58-11.94,12.16-11.94c6.53,0,12.11,5.07,12.11,11.94
	c0,6.94-5.57,12.01-12.11,12.01C721.47,282.91,715.9,277.85,715.9,270.9z M728.06,280.92c5.42,0,9.69-4.25,9.69-10.01
	c0-5.67-4.27-9.94-9.69-9.94c-5.47,0-9.76,4.27-9.76,9.94C718.3,276.67,722.59,280.92,728.06,280.92z M725.54,277.85h-2.09v-13.82
	h5.25c3.26,0,4.87,1.2,4.87,3.92c0,2.47-1.55,3.55-3.58,3.8l3.92,6.09h-2.34l-3.64-5.99h-2.4L725.54,277.85L725.54,277.85z
	 M728.03,270.08c1.77,0,3.36-0.12,3.36-2.24c0-1.71-1.55-2.03-3.01-2.03h-2.84v4.27H728.03z"/>
</svg>
